<svg width="28" height="28" viewBox="0 0 28 28" fill="none" xmlns="http://www.w3.org/2000/svg">
<path d="M10.0826 9.625H17.9174M18.375 9.625C18.375 9.625 16.765 6.125 14 6.125C11.235 6.125 9.625 9.625 9.625 9.625C9.625 9.625 7.875 14.0341 7.875 18.375C7.875 22.7159 11.375 22.75 11.375 22.75H16.625C16.625 22.75 20.125 22.7141 20.125 18.375C20.125 14.0359 18.375 9.625 18.375 9.625Z" stroke="#A3A3A3" stroke-width="1.7" stroke-miterlimit="10"/>
<path d="M14 3.5C13.5359 3.5 13.0908 3.68437 12.7626 4.01256C12.4344 4.34075 12.25 4.78587 12.25 5.25C12.25 5.71413 12.4344 6.15925 12.7626 6.48744C13.0908 6.81563 13.5359 7 14 7C14.4641 7 14.9092 6.81563 15.2374 6.48744C15.5656 6.15925 15.75 5.71413 15.75 5.25C15.75 4.78587 15.5656 4.34075 15.2374 4.01256C14.9092 3.68437 14.4641 3.5 14 3.5Z" fill="#A3A3A3"/>
<path d="M25.7364 9.625C24.745 9.625 23.9173 10.381 23.828 11.368L22.6966 17.591C22.4297 19.0584 21.1522 20.125 19.6604 20.125M8.54 12.3419C7.91175 11.7425 7.06125 11.375 6.125 11.375C4.67513 11.375 3.5 12.5501 3.5 14V15.75C3.5 18.1659 5.45913 20.125 7.875 20.125L8.54 12.3419Z" stroke="#A3A3A3" stroke-width="1.7" stroke-miterlimit="10"/>
<path d="M26.25 9.625H24.913C23.5874 9.625 22.3755 10.374 21.7822 11.5596L21.3342 12.4565C20.9641 13.1976 20.3997 13.8023 19.7216 14.2214" stroke="#A3A3A3" stroke-width="1.7" stroke-miterlimit="10"/>
</svg>
